<svg id="svg" version="1.1" xmlns="http://www.w3.org/2000/svg" xmlns:xlink="http://www.w3.org/1999/xlink" width="400" height="400" viewBox="0, 0, 400,400"><g id="svgg"><path id="path0" d="M0.000 200.000 L 0.000 400.000 200.000 400.000 L 400.000 400.000 400.000 200.000 L 400.000 0.000 200.000 0.000 L 0.000 0.000 0.000 200.000 M322.800 197.200 L 322.800 377.200 298.800 377.200 L 274.800 377.200 274.800 197.200 L 274.800 17.200 298.800 17.200 L 322.800 17.200 322.800 197.200 M254.701 242.100 L 254.600 377.000 230.900 377.103 L 207.200 377.206 207.200 242.203 L 207.200 107.200 231.001 107.200 L 254.801 107.200 254.701 242.100 M187.200 309.600 L 187.200 377.200 163.200 377.200 L 139.200 377.200 139.200 309.600 L 139.200 242.000 163.200 242.000 L 187.200 242.000 187.200 309.600 M119.102 331.900 L 119.000 377.000 95.300 377.103 L 71.600 377.206 71.600 332.003 L 71.600 286.800 95.402 286.800 L 119.203 286.800 119.102 331.900 " stroke="none" fill="#fbfbfc" fill-rule="evenodd"></path><path id="path1" d="M274.800 197.200 L 274.800 377.200 298.800 377.200 L 322.800 377.200 322.800 197.200 L 322.800 17.200 298.800 17.200 L 274.800 17.200 274.800 197.200 M71.600 332.003 L 71.600 377.206 95.300 377.103 L 119.000 377.000 119.102 331.900 L 119.203 286.800 95.402 286.800 L 71.600 286.800 71.600 332.003 M118.702 331.880 L 118.803 376.360 116.502 376.480 C 115.236 376.546,104.750 376.510,93.200 376.400 L 72.200 376.200 72.109 332.200 C 72.059 308.000,72.099 287.974,72.198 287.697 C 72.340 287.299,77.207 287.215,95.489 287.297 L 118.600 287.400 118.702 331.880 " stroke="none" fill="#296985" fill-rule="evenodd"></path><path id="path2" d="M207.466 107.468 C 207.318 107.615,207.199 168.365,207.201 242.468 L 207.205 377.200 230.602 377.200 C 243.471 377.200,253.979 377.065,253.953 376.900 C 253.828 376.110,254.051 375.860,254.400 376.400 C 254.651 376.788,254.788 329.303,254.788 242.000 C 254.788 166.535,254.636 107.239,254.444 107.543 C 254.204 107.921,254.017 107.951,253.826 107.643 C 253.523 107.153,207.953 106.981,207.466 107.468 " stroke="none" fill="#9a1d63" fill-rule="evenodd"></path><path id="path3" d="M72.198 287.697 C 72.099 287.974,72.059 308.000,72.109 332.200 L 72.200 376.200 93.200 376.400 C 104.750 376.510,115.236 376.546,116.502 376.480 L 118.803 376.360 118.702 331.880 L 118.600 287.400 95.489 287.297 C 77.207 287.215,72.340 287.299,72.198 287.697 " stroke="none" fill="#078579" fill-rule="evenodd"></path><path id="path4" d="M139.200 309.600 L 139.200 377.206 163.100 377.103 L 187.000 377.000 187.000 309.600 L 187.000 242.200 163.100 242.097 L 139.200 241.994 139.200 309.600 " stroke="none" fill="#602b7b" fill-rule="evenodd"></path></g></svg>