<?xml version="1.0" encoding="UTF-8"?>
<svg xmlns="http://www.w3.org/2000/svg" xmlns:xlink="http://www.w3.org/1999/xlink" width="130.41pt" height="55.14pt" viewBox="0 0 130.41 55.14" version="1.1">
<defs>
<clipPath id="clip1">
  <path d="M 0 0 L 130.410156 0 L 130.410156 41 L 0 41 Z M 0 0 "/>
</clipPath>
<clipPath id="clip2">
  <path d="M 58 46 L 64 46 L 64 55.140625 L 58 55.140625 Z M 58 46 "/>
</clipPath>
<clipPath id="clip3">
  <path d="M 127 46 L 130.410156 46 L 130.410156 53 L 127 53 Z M 127 46 "/>
</clipPath>
</defs>
<g id="surface1">
<g clip-path="url(#clip1)" clip-rule="nonzero">
<path style=" stroke:none;fill-rule:nonzero;fill:rgb(41.999817%,17.298889%,56.898499%);fill-opacity:1;" d="M 0.0664063 40.46875 L 130.40625 40.46875 L 130.40625 -0.00390625 L 0.0664063 -0.00390625 Z M 0.0664063 40.46875 "/>
</g>
<path style=" stroke:none;fill-rule:nonzero;fill:rgb(100%,83.099365%,0%);fill-opacity:1;" d="M 82.8125 24.738281 C 81.632813 24.738281 80.621094 25.410156 80.621094 26.398438 C 80.621094 27.261719 81.105469 27.855469 83.332031 28.71875 C 84.292969 28.167969 84.972656 27.480469 84.972656 26.585938 C 84.972656 25.457031 84.011719 24.738281 82.8125 24.738281 Z M 82.421875 29.535156 C 81.253906 30.113281 80.550781 30.933594 80.550781 31.953125 C 80.550781 33.285156 81.597656 34.160156 82.898438 34.160156 C 84.183594 34.160156 85.246094 33.332031 85.246094 32.109375 C 85.246094 31.058594 84.40625 30.363281 82.421875 29.535156 M 83.65625 28.925781 C 85.453125 29.660156 86.257813 30.460938 86.257813 31.667969 C 86.257813 33.300781 84.78125 34.554688 82.882813 34.554688 C 81.03125 34.554688 79.558594 33.410156 79.558594 31.984375 C 79.558594 30.882813 80.414063 29.988281 82.078125 29.378906 C 80.464844 28.71875 79.695313 27.949219 79.695313 26.886719 C 79.695313 25.503906 81.117188 24.34375 82.832031 24.34375 C 84.542969 24.34375 85.914063 25.347656 85.914063 26.601563 C 85.914063 27.605469 85.164063 28.375 83.65625 28.925781 M 97.777344 25.964844 L 94.257813 30.792969 L 97.777344 30.792969 Z M 93.449219 31.578125 L 93.449219 31.214844 L 98.421875 24.441406 L 98.882813 24.441406 L 98.882813 30.792969 L 100.171875 30.792969 L 100.171875 31.578125 L 98.882813 31.578125 L 98.882813 34.398438 L 97.777344 34.398438 L 97.777344 31.578125 L 93.449219 31.578125 M 74.65625 34.398438 L 74.65625 34.019531 C 76.136719 34.019531 76.207031 33.765625 76.207031 32.996094 L 76.210938 32.996094 L 76.210938 25.695313 C 75.683594 26.132813 74.761719 26.714844 74.148438 26.984375 L 74.019531 26.761719 C 74.972656 26.152344 76.34375 24.972656 76.738281 24.441406 L 77.3125 24.441406 L 77.3125 32.785156 C 77.332031 33.792969 77.523438 33.984375 79 34.019531 L 79 34.398438 Z M 93.28125 32.21875 L 92.988281 32.21875 C 92.773438 33.164063 92.5 33.414063 91.722656 33.429688 L 88.019531 33.429688 C 89.972656 31.714844 92.976563 29.472656 92.976563 27.101563 C 92.976563 25.527344 91.777344 24.34375 90.140625 24.34375 C 88.457031 24.34375 87.179688 25.558594 86.992188 27.335938 L 87.242188 27.335938 C 87.597656 26.070313 88.582031 25.230469 89.6875 25.230469 C 90.859375 25.230469 91.746094 26.152344 91.746094 27.320313 C 91.746094 30.117188 87.191406 33.558594 86.789063 33.953125 L 86.789063 34.398438 L 92.992188 34.398438 L 93.121094 33.429688 Z M 83.699219 12.421875 C 83.445313 10.792969 82.945313 10.679688 82.246094 10.679688 L 77.839844 10.679688 L 77.839844 15.484375 L 81.289063 15.484375 C 82 15.484375 82.335938 15.394531 82.433594 14.25 L 82.808594 14.25 L 82.808594 17.558594 L 82.433594 17.558594 C 82.277344 16.15625 81.902344 16.242188 81.089844 16.242188 L 77.839844 16.242188 L 77.839844 20.445313 C 77.839844 21.355469 78.257813 21.53125 78.984375 21.53125 L 81.941406 21.53125 C 83.300781 21.53125 83.746094 21.238281 84.222656 19.578125 L 84.582031 19.578125 L 84.273438 22.242188 L 74.511719 22.242188 L 74.511719 21.863281 C 76.09375 21.828125 76.203125 21.609375 76.203125 20.40625 L 76.210938 11.800781 C 76.210938 10.597656 76.097656 10.378906 74.519531 10.339844 L 74.519531 9.964844 L 83.90625 9.96875 L 84.058594 12.421875 Z M 92.363281 12.019531 L 100.738281 12.019531 L 100.980469 14.242188 L 100.6875 14.242188 C 100.445313 12.820313 100.148438 12.636719 99.5 12.636719 L 97.253906 12.636719 L 97.253906 20.722656 C 97.253906 21.59375 97.546875 21.902344 98.53125 21.902344 L 98.902344 21.902344 L 98.902344 22.242188 L 94.199219 22.242188 L 94.199219 21.902344 L 94.570313 21.902344 C 95.554688 21.902344 95.847656 21.59375 95.847656 20.722656 L 95.847656 12.636719 L 93.601563 12.636719 C 92.953125 12.636719 92.664063 12.8125 92.421875 14.246094 L 92.128906 14.246094 Z M 86.4375 13.753906 C 86.4375 12.839844 87.257813 12.285156 88.429688 12.285156 C 89.65625 12.285156 90.796875 13.066406 91.292969 14.242188 L 91.578125 14.242188 L 91.34375 12.496094 C 90.734375 12.214844 89.421875 11.808594 88.269531 11.808594 C 86.457031 11.808594 85.140625 12.988281 85.140625 14.34375 C 85.140625 17.203125 90.8125 17.839844 90.8125 20.191406 C 90.8125 21.480469 89.550781 22.03125 88.359375 22.03125 C 86.96875 22.03125 85.695313 21.1875 85.316406 19.578125 L 85.003906 19.578125 L 85.363281 22.007813 C 86.285156 22.265625 87.535156 22.558594 88.519531 22.558594 C 90.601563 22.558594 92.113281 21.214844 92.113281 19.613281 C 92.113281 16.609375 86.4375 16.074219 86.4375 13.753906 "/>
<path style=" stroke:none;fill-rule:nonzero;fill:rgb(100%,100%,100%);fill-opacity:1;" d="M 115.335938 16.671875 C 114.882813 16.671875 114.582031 16.691406 114.109375 16.632813 L 114.109375 10.289063 C 114.464844 10.25 114.726563 10.25 115.097656 10.25 C 118.15625 10.25 118.988281 11.59375 118.988281 13.441406 C 118.988281 15.820313 117.539063 16.671875 115.335938 16.671875 Z M 122.042969 19.957031 L 120.476563 18.457031 C 119.542969 17.523438 118.949219 17.113281 118.214844 16.535156 C 119.84375 16.058594 120.855469 14.808594 120.855469 13.324219 C 120.855469 11.296875 119.207031 9.792969 115.539063 9.792969 C 114.246094 9.792969 113.851563 9.808594 113.039063 9.851563 C 112.226563 9.890625 111.015625 9.96875 110.539063 9.96875 L 110.539063 10.347656 L 110.972656 10.347656 C 112.125 10.347656 112.464844 10.703125 112.464844 11.933594 L 112.464844 20.21875 C 112.464844 21.546875 112.046875 21.863281 110.875 21.863281 L 110.539063 21.863281 L 110.539063 22.242188 L 116.152344 22.242188 L 116.152344 21.863281 L 115.695313 21.863281 C 114.582031 21.863281 114.109375 21.566406 114.109375 20.375 L 114.109375 17.089844 C 114.425781 17.113281 114.683594 17.128906 115.121094 17.128906 C 115.640625 17.128906 115.957031 17.113281 116.425781 17.09375 C 117.9375 17.960938 119.121094 19.289063 119.820313 19.957031 C 121.628906 21.675781 122.050781 22.398438 125.523438 22.242188 L 125.523438 21.863281 C 123.996094 21.765625 123.214844 21.128906 122.042969 19.957031 Z M 115.335938 16.671875 C 114.882813 16.671875 114.582031 16.691406 114.109375 16.632813 L 114.109375 10.289063 C 114.464844 10.25 114.726563 10.25 115.097656 10.25 C 118.15625 10.25 118.988281 11.59375 118.988281 13.441406 C 118.988281 15.820313 117.539063 16.671875 115.335938 16.671875 Z M 122.042969 19.957031 L 120.476563 18.457031 C 119.542969 17.523438 118.949219 17.113281 118.214844 16.535156 C 119.84375 16.058594 120.855469 14.808594 120.855469 13.324219 C 120.855469 11.296875 119.207031 9.792969 115.539063 9.792969 C 114.246094 9.792969 113.851563 9.808594 113.039063 9.851563 C 112.226563 9.890625 111.015625 9.96875 110.539063 9.96875 L 110.539063 10.347656 L 110.972656 10.347656 C 112.125 10.347656 112.464844 10.703125 112.464844 11.933594 L 112.464844 20.21875 C 112.464844 21.546875 112.046875 21.863281 110.875 21.863281 L 110.539063 21.863281 L 110.539063 22.242188 L 116.152344 22.242188 L 116.152344 21.863281 L 115.695313 21.863281 C 114.582031 21.863281 114.109375 21.566406 114.109375 20.375 L 114.109375 17.089844 C 114.425781 17.113281 114.683594 17.128906 115.121094 17.128906 C 115.640625 17.128906 115.957031 17.113281 116.425781 17.09375 C 117.9375 17.960938 119.121094 19.289063 119.820313 19.957031 C 121.628906 21.675781 122.050781 22.398438 125.523438 22.242188 L 125.523438 21.863281 C 123.996094 21.765625 123.214844 21.128906 122.042969 19.957031 Z M 55.160156 9.671875 C 57.230469 9.671875 58.753906 10.367188 59.671875 10.761719 L 59.828125 13.207031 L 59.449219 13.207031 C 58.800781 11.371094 57.429688 10.167969 55.277344 10.167969 C 51.984375 10.167969 50.339844 12.714844 50.339844 16.03125 C 50.339844 19.601563 52.496094 22.015625 55.496094 22.015625 C 56.394531 22.015625 58.640625 21.417969 59.984375 19.027344 L 60.359375 19.027344 L 59.414063 21.34375 C 58.238281 21.90625 57.292969 22.558594 54.964844 22.558594 C 50.957031 22.558594 48.566406 19.914063 48.566406 16.265625 C 48.566406 12.4375 51.035156 9.671875 55.160156 9.671875 Z M 74.222656 21.863281 L 74.222656 22.238281 L 69.339844 22.238281 L 69.339844 21.863281 C 70.828125 21.828125 71.011719 21.632813 71.027344 20.597656 L 71.027344 16.246094 L 63.78125 16.246094 L 63.78125 20.402344 L 63.785156 20.402344 C 63.785156 21.605469 63.894531 21.824219 65.472656 21.863281 L 65.472656 22.238281 L 60.589844 22.238281 L 60.589844 21.863281 C 62.070313 21.863281 62.140625 21.605469 62.140625 20.835938 L 62.144531 20.835938 L 62.144531 11.371094 L 62.140625 11.367188 C 62.140625 10.597656 62.070313 10.34375 60.589844 10.34375 L 60.589844 9.96875 L 65.472656 9.96875 L 65.472656 10.34375 C 63.894531 10.382813 63.78125 10.597656 63.78125 11.804688 L 63.777344 11.800781 L 63.773438 15.484375 L 71.019531 15.484375 L 71.023438 11.632813 C 71.011719 10.582031 70.835938 10.378906 69.335938 10.34375 L 69.335938 9.96875 L 74.21875 9.96875 L 74.21875 10.34375 C 72.738281 10.34375 72.667969 10.601563 72.667969 11.371094 L 72.660156 11.371094 L 72.660156 20.835938 L 72.667969 20.839844 C 72.667969 21.609375 72.738281 21.863281 74.222656 21.863281 Z M 26.40625 16.539063 L 28.667969 11.183594 L 30.910156 16.539063 Z M 44.320313 9.96875 L 44.320313 10.34375 C 45.898438 10.382813 46.007813 10.601563 46.007813 11.804688 L 46.007813 19.65625 L 37.765625 9.96875 L 34.8125 9.96875 L 34.8125 10.34375 C 35.503906 10.363281 35.871094 10.519531 36.324219 10.839844 L 36.324219 20.542969 C 36.324219 21.292969 36.035156 21.828125 35.375 21.828125 C 34.847656 21.828125 34.601563 21.246094 34.316406 20.625 L 29.722656 9.96875 L 28.324219 9.96875 L 24.085938 19.914063 C 23.328125 21.5625 23.191406 21.832031 22.78125 21.832031 C 22.269531 21.832031 22.089844 21.375 22.003906 20.050781 L 21.398438 11.367188 C 21.398438 10.597656 21.632813 10.34375 23.113281 10.34375 L 23.113281 9.96875 L 19.785156 9.96875 L 15.449219 19.933594 L 11.089844 9.96875 L 7.632813 9.96875 L 7.632813 10.34375 C 9.113281 10.34375 9.347656 10.601563 9.347656 11.371094 L 8.824219 19.753906 C 8.722656 21.550781 8.546875 21.867188 7.105469 21.867188 L 7.105469 22.242188 L 11.210938 22.242188 L 11.210938 21.867188 C 10.320313 21.828125 9.570313 21.609375 9.628906 20.605469 L 10.164063 11.726563 L 10.203125 11.726563 L 14.839844 22.242188 L 15.292969 22.242188 L 19.792969 11.726563 L 19.832031 11.726563 L 20.402344 20.5625 C 20.484375 21.609375 19.574219 21.867188 18.648438 21.867188 L 18.648438 22.242188 L 26.265625 22.242188 L 26.265625 21.867188 L 26.195313 21.867188 C 25.109375 21.867188 24.597656 21.671875 24.597656 21.136719 C 24.597656 20.859375 24.855469 20.269531 24.992188 19.894531 L 26.085938 17.300781 L 31.226563 17.300781 L 32.519531 20.386719 C 32.597656 20.585938 32.738281 20.878906 32.738281 21.195313 C 32.738281 21.746094 32.324219 21.867188 31.199219 21.867188 L 30.929688 21.867188 L 30.929688 22.242188 L 38.957031 22.242188 L 38.957031 21.867188 C 37.28125 21.867188 37.210938 21.570313 37.210938 20.152344 L 37.210938 11.6875 L 46.382813 22.378906 L 46.894531 22.378906 L 46.894531 11.371094 C 46.894531 10.601563 46.964844 10.34375 48.449219 10.34375 L 48.449219 9.96875 Z M 109.882813 12.421875 L 109.726563 9.96875 L 100.34375 9.964844 L 100.34375 10.339844 C 101.921875 10.378906 102.03125 10.597656 102.03125 11.800781 L 102.023438 20.40625 C 102.023438 21.609375 101.914063 21.828125 100.335938 21.863281 L 100.335938 22.242188 L 110.09375 22.242188 L 110.402344 19.578125 L 110.042969 19.578125 C 109.566406 21.238281 109.125 21.53125 107.765625 21.53125 L 104.808594 21.53125 C 104.078125 21.53125 103.660156 21.355469 103.660156 20.445313 L 103.660156 16.242188 L 106.914063 16.242188 C 107.722656 16.242188 108.101563 16.15625 108.257813 17.558594 L 108.632813 17.558594 L 108.632813 14.25 L 108.257813 14.25 C 108.15625 15.394531 107.820313 15.484375 107.113281 15.484375 L 103.660156 15.484375 L 103.660156 10.679688 L 108.066406 10.679688 C 108.765625 10.679688 109.265625 10.792969 109.519531 12.421875 L 109.882813 12.421875 "/>
<path style=" stroke:none;fill-rule:nonzero;fill:rgb(54.098511%,54.899597%,55.699158%);fill-opacity:1;" d="M 3.011719 45.75 L 3.011719 52.367188 L 2.1875 52.367188 L 2.1875 45.75 L 0 45.75 L 0 45.058594 L 5.210938 45.058594 L 5.210938 45.75 L 3.011719 45.75 "/>
<path style=" stroke:none;fill-rule:nonzero;fill:rgb(54.098511%,54.899597%,55.699158%);fill-opacity:1;" d="M 9.648438 52.367188 L 9.648438 48.878906 C 9.648438 48.035156 9.421875 47.546875 8.644531 47.546875 C 7.679688 47.546875 6.996094 48.5 6.996094 49.777344 L 6.996094 52.367188 L 6.183594 52.367188 L 6.183594 44.460938 L 6.996094 44.460938 L 6.996094 47.09375 C 6.996094 47.449219 6.976563 47.894531 6.910156 48.164063 L 6.929688 48.175781 C 7.246094 47.386719 7.917969 46.875 8.847656 46.875 C 10.082031 46.875 10.460938 47.65625 10.460938 48.609375 L 10.460938 52.367188 L 9.648438 52.367188 "/>
<path style=" stroke:none;fill-rule:nonzero;fill:rgb(54.098511%,54.899597%,55.699158%);fill-opacity:1;" d="M 16.148438 49.507813 L 12.550781 49.507813 C 12.496094 51.121094 13.136719 51.792969 14.339844 51.792969 C 14.902344 51.792969 15.496094 51.652344 15.898438 51.445313 L 15.972656 52.140625 C 15.476563 52.347656 14.871094 52.464844 14.199219 52.464844 C 12.574219 52.464844 11.707031 51.585938 11.707031 49.703125 C 11.707031 48.089844 12.574219 46.886719 14.070313 46.886719 C 15.550781 46.886719 16.167969 47.917969 16.167969 49.109375 C 16.167969 49.207031 16.167969 49.347656 16.148438 49.507813 Z M 14.023438 47.503906 C 13.265625 47.503906 12.726563 48.058594 12.59375 48.902344 L 15.324219 48.902344 C 15.347656 48.066406 14.847656 47.503906 14.023438 47.503906 "/>
<path style=" stroke:none;fill-rule:nonzero;fill:rgb(54.098511%,54.899597%,55.699158%);fill-opacity:1;" d="M 22.308594 52.464844 C 20.046875 52.464844 19.613281 51.199219 19.613281 49.941406 L 19.613281 45.058594 L 20.445313 45.058594 L 20.445313 49.867188 C 20.445313 50.917969 20.792969 51.78125 22.375 51.78125 C 23.71875 51.78125 24.378906 51.21875 24.378906 49.660156 L 24.378906 45.058594 L 25.191406 45.058594 L 25.191406 49.59375 C 25.191406 51.46875 24.207031 52.464844 22.308594 52.464844 "/>
<path style=" stroke:none;fill-rule:nonzero;fill:rgb(54.098511%,54.899597%,55.699158%);fill-opacity:1;" d="M 30.246094 52.367188 L 30.246094 48.878906 C 30.246094 48.035156 30.019531 47.546875 29.242188 47.546875 C 28.277344 47.546875 27.59375 48.5 27.59375 49.777344 L 27.59375 52.367188 L 26.78125 52.367188 L 26.78125 46.984375 L 27.582031 46.984375 C 27.582031 47.332031 27.550781 47.851563 27.496094 48.175781 L 27.519531 48.1875 C 27.820313 47.40625 28.503906 46.875 29.445313 46.875 C 30.679688 46.875 31.058594 47.65625 31.058594 48.609375 L 31.058594 52.367188 L 30.246094 52.367188 "/>
<path style=" stroke:none;fill-rule:nonzero;fill:rgb(54.098511%,54.899597%,55.699158%);fill-opacity:1;" d="M 33.011719 46.011719 C 32.695313 46.011719 32.445313 45.773438 32.445313 45.457031 C 32.445313 45.15625 32.695313 44.90625 33.011719 44.90625 C 33.3125 44.90625 33.574219 45.15625 33.574219 45.457031 C 33.574219 45.773438 33.3125 46.011719 33.011719 46.011719 Z M 32.597656 52.367188 L 32.597656 46.984375 L 33.410156 46.984375 L 33.410156 52.367188 L 32.597656 52.367188 "/>
<path style=" stroke:none;fill-rule:nonzero;fill:rgb(54.098511%,54.899597%,55.699158%);fill-opacity:1;" d="M 37.167969 52.367188 L 36.324219 52.367188 L 34.289063 46.984375 L 35.207031 46.984375 L 36.464844 50.492188 C 36.574219 50.828125 36.667969 51.132813 36.769531 51.445313 L 36.777344 51.445313 C 36.863281 51.15625 36.960938 50.828125 37.070313 50.539063 L 38.359375 46.984375 L 39.246094 46.984375 L 37.167969 52.367188 "/>
<path style=" stroke:none;fill-rule:nonzero;fill:rgb(54.098511%,54.899597%,55.699158%);fill-opacity:1;" d="M 43.890625 49.507813 L 40.296875 49.507813 C 40.242188 51.121094 40.882813 51.792969 42.082031 51.792969 C 42.648438 51.792969 43.242188 51.652344 43.644531 51.445313 L 43.71875 52.140625 C 43.21875 52.347656 42.613281 52.464844 41.941406 52.464844 C 40.320313 52.464844 39.453125 51.585938 39.453125 49.703125 C 39.453125 48.089844 40.320313 46.886719 41.8125 46.886719 C 43.296875 46.886719 43.914063 47.917969 43.914063 49.109375 C 43.914063 49.207031 43.914063 49.347656 43.890625 49.507813 Z M 41.769531 47.503906 C 41.011719 47.503906 40.46875 48.058594 40.339844 48.902344 L 43.070313 48.902344 C 43.089844 48.066406 42.59375 47.503906 41.769531 47.503906 "/>
<path style=" stroke:none;fill-rule:nonzero;fill:rgb(54.098511%,54.899597%,55.699158%);fill-opacity:1;" d="M 47.78125 47.6875 C 46.589844 47.492188 46.027344 48.402344 46.027344 50.210938 L 46.027344 52.367188 L 45.214844 52.367188 L 45.214844 46.984375 L 46.015625 46.984375 C 46.015625 47.34375 45.972656 47.871094 45.894531 48.339844 L 45.90625 48.347656 C 46.121094 47.558594 46.6875 46.757813 47.8125 46.886719 L 47.78125 47.6875 "/>
<path style=" stroke:none;fill-rule:nonzero;fill:rgb(54.098511%,54.899597%,55.699158%);fill-opacity:1;" d="M 49.644531 52.464844 C 49.242188 52.464844 48.832031 52.421875 48.503906 52.355469 L 48.527344 51.609375 C 48.875 51.707031 49.304688 51.78125 49.730469 51.78125 C 50.507813 51.78125 51.050781 51.4375 51.050781 50.871094 C 51.050781 49.574219 48.429688 50.386719 48.429688 48.46875 C 48.429688 47.570313 49.164063 46.886719 50.53125 46.886719 C 50.867188 46.886719 51.246094 46.941406 51.582031 47.007813 L 51.558594 47.710938 C 51.203125 47.589844 50.8125 47.527344 50.445313 47.527344 C 49.652344 47.527344 49.265625 47.851563 49.265625 48.382813 C 49.265625 49.671875 51.894531 48.933594 51.894531 50.765625 C 51.894531 51.71875 51.050781 52.464844 49.644531 52.464844 "/>
<path style=" stroke:none;fill-rule:nonzero;fill:rgb(54.098511%,54.899597%,55.699158%);fill-opacity:1;" d="M 54.113281 45.457031 C 54.113281 45.15625 53.855469 44.90625 53.550781 44.90625 C 53.238281 44.90625 52.988281 45.15625 52.988281 45.457031 C 52.988281 45.773438 53.238281 46.011719 53.550781 46.011719 C 53.855469 46.011719 54.113281 45.773438 54.113281 45.457031 Z M 53.953125 52.367188 L 53.953125 46.984375 L 53.140625 46.984375 L 53.140625 52.367188 L 53.953125 52.367188 "/>
<path style=" stroke:none;fill-rule:nonzero;fill:rgb(54.098511%,54.899597%,55.699158%);fill-opacity:1;" d="M 57.308594 52.453125 C 56.226563 52.453125 55.914063 51.976563 55.914063 50.863281 L 55.914063 47.625 L 54.742188 47.625 L 54.742188 46.984375 L 55.914063 46.984375 L 55.914063 45.199219 L 56.726563 44.96875 L 56.726563 46.984375 L 58.304688 46.984375 L 58.304688 47.625 L 56.726563 47.625 L 56.726563 50.527344 C 56.726563 51.488281 56.898438 51.738281 57.539063 51.738281 C 57.808594 51.738281 58.089844 51.707031 58.304688 51.640625 L 58.304688 52.347656 C 58.023438 52.410156 57.644531 52.453125 57.308594 52.453125 "/>
<g clip-path="url(#clip2)" clip-rule="nonzero">
<path style=" stroke:none;fill-rule:nonzero;fill:rgb(54.098511%,54.899597%,55.699158%);fill-opacity:1;" d="M 61.253906 52.929688 C 60.625 54.585938 60.148438 55.140625 58.96875 55.140625 C 58.773438 55.140625 58.5 55.117188 58.285156 55.085938 L 58.371094 54.339844 C 58.589844 54.414063 58.804688 54.445313 59.042969 54.445313 C 59.691406 54.445313 60.019531 54.144531 60.441406 53.007813 L 60.6875 52.367188 L 58.632813 46.984375 L 59.5625 46.984375 L 60.6875 50.070313 C 60.863281 50.558594 60.980469 50.949219 61.101563 51.347656 L 61.109375 51.347656 C 61.207031 51.003906 61.4375 50.332031 61.652344 49.714844 L 62.617188 46.984375 L 63.503906 46.984375 L 61.253906 52.929688 "/>
</g>
<path style=" stroke:none;fill-rule:nonzero;fill:rgb(54.098511%,54.899597%,55.699158%);fill-opacity:1;" d="M 68.367188 52.464844 C 66.925781 52.464844 65.996094 51.585938 65.996094 49.703125 C 65.996094 48.164063 66.949219 46.886719 68.5625 46.886719 C 69.871094 46.886719 70.945313 47.613281 70.945313 49.585938 C 70.945313 51.1875 69.960938 52.464844 68.367188 52.464844 Z M 68.484375 47.558594 C 67.640625 47.558594 66.839844 48.199219 66.839844 49.636719 C 66.839844 51.015625 67.433594 51.773438 68.484375 51.773438 C 69.332031 51.773438 70.101563 51.121094 70.101563 49.636719 C 70.101563 48.339844 69.558594 47.558594 68.484375 47.558594 "/>
<path style=" stroke:none;fill-rule:nonzero;fill:rgb(54.098511%,54.899597%,55.699158%);fill-opacity:1;" d="M 75.308594 45.1875 C 75.039063 45.101563 74.746094 45.066406 74.464844 45.066406 C 73.640625 45.066406 73.273438 45.542969 73.273438 46.585938 L 73.273438 46.984375 L 74.863281 46.984375 L 74.863281 47.625 L 73.273438 47.625 L 73.273438 52.367188 L 72.460938 52.367188 L 72.460938 47.625 L 71.289063 47.625 L 71.289063 46.984375 L 72.460938 46.984375 L 72.460938 46.605469 C 72.460938 45.101563 73.207031 44.40625 74.496094 44.40625 C 74.800781 44.40625 75.09375 44.441406 75.382813 44.503906 L 75.308594 45.1875 "/>
<path style=" stroke:none;fill-rule:nonzero;fill:rgb(54.098511%,54.899597%,55.699158%);fill-opacity:1;" d="M 85.097656 52.367188 L 84.449219 47.863281 C 84.320313 46.972656 84.265625 46.433594 84.222656 46.03125 L 84.199219 46.03125 C 84.125 46.335938 84.015625 46.757813 83.84375 47.253906 L 82.132813 52.367188 L 81.1875 52.367188 L 79.566406 47.582031 C 79.378906 47.050781 79.183594 46.476563 79.097656 46.03125 L 79.089844 46.03125 C 79.054688 46.617188 78.980469 47.203125 78.894531 47.949219 L 78.363281 52.367188 L 77.507813 52.367188 L 78.546875 45.058594 L 79.597656 45.058594 L 81.265625 49.996094 C 81.449219 50.527344 81.601563 51.015625 81.675781 51.414063 L 81.699219 51.414063 C 81.804688 50.917969 81.914063 50.589844 82.097656 50.070313 L 83.808594 45.058594 L 84.894531 45.058594 L 85.976563 52.367188 L 85.097656 52.367188 "/>
<path style=" stroke:none;fill-rule:nonzero;fill:rgb(54.098511%,54.899597%,55.699158%);fill-opacity:1;" d="M 90.210938 52.367188 C 90.210938 51.957031 90.210938 51.542969 90.265625 51.230469 L 90.242188 51.230469 C 89.984375 51.914063 89.289063 52.464844 88.367188 52.464844 C 87.515625 52.464844 86.898438 52.011719 86.898438 51.15625 C 86.898438 50.027344 88.066406 49.25 90.167969 49.25 L 90.167969 48.804688 C 90.167969 47.992188 89.875 47.539063 88.945313 47.539063 C 88.421875 47.539063 87.773438 47.699219 87.296875 48.003906 L 87.222656 47.289063 C 87.730469 47.0625 88.359375 46.886719 89.085938 46.886719 C 90.566406 46.886719 90.988281 47.625 90.988281 48.640625 L 90.988281 50.753906 C 90.988281 51.285156 90.988281 51.890625 91.011719 52.367188 Z M 90.167969 49.84375 C 88.140625 49.84375 87.707031 50.484375 87.707031 51.003906 C 87.707031 51.488281 88.054688 51.804688 88.585938 51.804688 C 89.539063 51.804688 90.167969 50.863281 90.167969 49.929688 L 90.167969 49.84375 "/>
<path style=" stroke:none;fill-rule:nonzero;fill:rgb(54.098511%,54.899597%,55.699158%);fill-opacity:1;" d="M 96.003906 52.367188 L 96.003906 48.878906 C 96.003906 48.035156 95.777344 47.546875 94.996094 47.546875 C 94.03125 47.546875 93.351563 48.5 93.351563 49.777344 L 93.351563 52.367188 L 92.539063 52.367188 L 92.539063 46.984375 L 93.339844 46.984375 C 93.339844 47.332031 93.308594 47.851563 93.253906 48.175781 L 93.277344 48.1875 C 93.578125 47.40625 94.261719 46.875 95.203125 46.875 C 96.4375 46.875 96.816406 47.65625 96.816406 48.609375 L 96.816406 52.367188 L 96.003906 52.367188 "/>
<path style=" stroke:none;fill-rule:nonzero;fill:rgb(54.098511%,54.899597%,55.699158%);fill-opacity:1;" d="M 100.390625 52.433594 C 99.1875 52.433594 98.0625 51.902344 98.0625 49.867188 C 98.0625 48.101563 98.949219 46.910156 100.703125 46.910156 C 101.148438 46.910156 101.59375 46.972656 101.972656 47.09375 L 101.886719 47.808594 C 101.527344 47.667969 101.105469 47.570313 100.648438 47.570313 C 99.492188 47.570313 98.917969 48.425781 98.917969 49.726563 C 98.917969 50.828125 99.265625 51.738281 100.5625 51.738281 C 101.039063 51.738281 101.558594 51.621094 101.917969 51.4375 L 101.992188 52.140625 C 101.636719 52.28125 101.050781 52.433594 100.390625 52.433594 "/>
<path style=" stroke:none;fill-rule:nonzero;fill:rgb(54.098511%,54.899597%,55.699158%);fill-opacity:1;" d="M 106.585938 52.367188 L 106.585938 48.878906 C 106.585938 48.035156 106.355469 47.546875 105.578125 47.546875 C 104.613281 47.546875 103.933594 48.5 103.933594 49.777344 L 103.933594 52.367188 L 103.121094 52.367188 L 103.121094 44.460938 L 103.933594 44.460938 L 103.933594 47.09375 C 103.933594 47.449219 103.910156 47.894531 103.84375 48.164063 L 103.867188 48.175781 C 104.179688 47.386719 104.851563 46.875 105.785156 46.875 C 107.019531 46.875 107.398438 47.65625 107.398438 48.609375 L 107.398438 52.367188 L 106.585938 52.367188 "/>
<path style=" stroke:none;fill-rule:nonzero;fill:rgb(54.098511%,54.899597%,55.699158%);fill-opacity:1;" d="M 113.082031 49.507813 L 109.488281 49.507813 C 109.433594 51.121094 110.070313 51.792969 111.273438 51.792969 C 111.835938 51.792969 112.433594 51.652344 112.835938 51.445313 L 112.910156 52.140625 C 112.410156 52.347656 111.804688 52.464844 111.132813 52.464844 C 109.507813 52.464844 108.644531 51.585938 108.644531 49.703125 C 108.644531 48.089844 109.507813 46.886719 111.003906 46.886719 C 112.488281 46.886719 113.105469 47.917969 113.105469 49.109375 C 113.105469 49.207031 113.105469 49.347656 113.082031 49.507813 Z M 110.960938 47.503906 C 110.203125 47.503906 109.660156 48.058594 109.53125 48.902344 L 112.261719 48.902344 C 112.28125 48.066406 111.78125 47.503906 110.960938 47.503906 "/>
<path style=" stroke:none;fill-rule:nonzero;fill:rgb(54.098511%,54.899597%,55.699158%);fill-opacity:1;" d="M 115.214844 52.464844 C 114.816406 52.464844 114.402344 52.421875 114.078125 52.355469 L 114.101563 51.609375 C 114.449219 51.707031 114.882813 51.78125 115.304688 51.78125 C 116.082031 51.78125 116.625 51.4375 116.625 50.871094 C 116.625 49.574219 114.003906 50.386719 114.003906 48.46875 C 114.003906 47.570313 114.738281 46.886719 116.105469 46.886719 C 116.441406 46.886719 116.820313 46.941406 117.15625 47.007813 L 117.132813 47.710938 C 116.777344 47.589844 116.386719 47.527344 116.019531 47.527344 C 115.226563 47.527344 114.835938 47.851563 114.835938 48.382813 C 114.835938 49.671875 117.46875 48.933594 117.46875 50.765625 C 117.46875 51.71875 116.625 52.464844 115.214844 52.464844 "/>
<path style=" stroke:none;fill-rule:nonzero;fill:rgb(54.098511%,54.899597%,55.699158%);fill-opacity:1;" d="M 120.425781 52.453125 C 119.34375 52.453125 119.027344 51.976563 119.027344 50.863281 L 119.027344 47.625 L 117.859375 47.625 L 117.859375 46.984375 L 119.027344 46.984375 L 119.027344 45.199219 L 119.839844 44.96875 L 119.839844 46.984375 L 121.421875 46.984375 L 121.421875 47.625 L 119.839844 47.625 L 119.839844 50.527344 C 119.839844 51.488281 120.015625 51.738281 120.652344 51.738281 C 120.925781 51.738281 121.207031 51.707031 121.421875 51.640625 L 121.421875 52.347656 C 121.140625 52.410156 120.761719 52.453125 120.425781 52.453125 "/>
<path style=" stroke:none;fill-rule:nonzero;fill:rgb(54.098511%,54.899597%,55.699158%);fill-opacity:1;" d="M 126.542969 49.507813 L 122.949219 49.507813 C 122.894531 51.121094 123.535156 51.792969 124.734375 51.792969 C 125.300781 51.792969 125.894531 51.652344 126.296875 51.445313 L 126.371094 52.140625 C 125.871094 52.347656 125.265625 52.464844 124.59375 52.464844 C 122.972656 52.464844 122.105469 51.585938 122.105469 49.703125 C 122.105469 48.089844 122.972656 46.886719 124.464844 46.886719 C 125.949219 46.886719 126.566406 47.917969 126.566406 49.109375 C 126.566406 49.207031 126.566406 49.347656 126.542969 49.507813 Z M 124.421875 47.503906 C 123.664063 47.503906 123.121094 48.058594 122.992188 48.902344 L 125.722656 48.902344 C 125.742188 48.066406 125.246094 47.503906 124.421875 47.503906 "/>
<g clip-path="url(#clip3)" clip-rule="nonzero">
<path style=" stroke:none;fill-rule:nonzero;fill:rgb(54.098511%,54.899597%,55.699158%);fill-opacity:1;" d="M 130.378906 47.6875 C 129.1875 47.492188 128.625 48.402344 128.625 50.210938 L 128.625 52.367188 L 127.8125 52.367188 L 127.8125 46.984375 L 128.613281 46.984375 C 128.613281 47.34375 128.570313 47.871094 128.492188 48.339844 L 128.503906 48.347656 C 128.722656 47.558594 129.285156 46.757813 130.410156 46.886719 L 130.378906 47.6875 "/>
</g>
</g>
</svg>
